<?xml version="1.0" encoding="UTF-8"?>
<svg id="Layer_1" data-name="Layer 1" xmlns="http://www.w3.org/2000/svg" viewBox="0 0 1503.99 300.51">
  <defs>
    <style>
      .cls-1 {
        fill: #fff;
      }
    </style>
  </defs>
  <path class="cls-1" d="M33.37,265.75C11.12,243.64,0,212.07,0,171.04V14.39h64.74v154.25c0,50.09,20.78,75.13,62.34,75.13,20.24,0,35.7-6.06,46.36-18.18,10.65-12.12,15.98-31.1,15.98-56.95V14.39h63.94v156.65c0,41.03-11.13,72.6-33.37,94.71-22.25,22.12-53.35,33.17-93.31,33.17s-71.07-11.05-93.31-33.17Z"/>
  <path class="cls-1" d="M471.93,102.3c16.38,15.98,24.58,39.7,24.58,71.13v123.08h-62.34v-113.49c0-17.05-3.73-29.77-11.19-38.16-7.46-8.39-18.25-12.59-32.37-12.59-15.72,0-28.24,4.86-37.56,14.59-9.33,9.73-13.99,24.18-13.99,43.36v106.3h-62.34V81.52h59.54v25.18c8.25-9.05,18.51-16.05,30.77-20.98,12.25-4.93,25.71-7.39,40.36-7.39,26.64,0,48.15,7.99,64.54,23.98Z"/>
  <path class="cls-1" d="M519.87,81.52h62.34v214.99h-62.34V81.52Z"/>
  <path class="cls-1" d="M786.61,86.32c12.65-5.33,27.24-7.99,43.76-7.99v57.54c-6.93-.53-11.59-.8-13.99-.8-17.85,0-31.84,4.99-41.96,14.99-10.13,9.99-15.19,24.98-15.19,44.96v101.5h-62.34V81.52h59.54v28.37c7.45-10.39,17.51-18.24,30.17-23.58Z"/>
  <path class="cls-1" d="M1013.62,102.1c17.85,15.85,26.77,39.76,26.77,71.73v122.68h-58.34v-26.77c-11.72,19.98-33.57,29.97-65.54,29.97-16.52,0-30.84-2.8-42.96-8.39-12.13-5.59-21.38-13.32-27.77-23.18-6.39-9.85-9.59-21.04-9.59-33.57,0-19.98,7.52-35.7,22.58-47.16,15.05-11.45,38.29-17.18,69.73-17.18h49.55c0-13.59-4.13-24.04-12.39-31.37-8.26-7.32-20.65-10.99-37.17-10.99-11.46,0-22.72,1.8-33.77,5.39-11.06,3.6-20.45,8.46-28.17,14.59l-22.38-43.56c11.72-8.25,25.78-14.65,42.16-19.18,16.38-4.53,33.23-6.79,50.55-6.79,33.3,0,58.87,7.93,76.73,23.78ZM960.47,250.36c8.26-4.93,14.12-12.19,17.58-21.78v-21.98h-42.76c-25.57,0-38.36,8.39-38.36,25.18,0,7.99,3.13,14.32,9.39,18.98,6.26,4.66,14.85,6.99,25.77,6.99s20.11-2.46,28.37-7.39Z"/>
  <path class="cls-1" d="M1104.35,286.22c-18.25-9.52-32.51-22.74-42.76-39.65-10.26-16.9-15.39-36.09-15.39-57.56s5.13-40.65,15.39-57.56c10.25-16.91,24.51-30.12,42.76-39.65,18.25-9.52,38.83-14.29,61.74-14.29s42.42,4.77,59.34,14.29c16.92,9.53,29.23,23.14,36.97,40.85l-48.35,26.16c-11.19-19.85-27.31-29.78-48.36-29.78-16.25,0-29.71,5.37-40.36,16.1-10.66,10.74-15.99,25.36-15.99,43.87s5.33,33.14,15.99,43.87c10.65,10.74,24.11,16.1,40.36,16.1,21.31,0,37.43-9.92,48.36-29.79l48.35,26.57c-7.73,17.18-20.05,30.59-36.97,40.25-16.92,9.66-36.7,14.49-59.34,14.49s-43.49-4.76-61.74-14.29Z"/>
  <path class="cls-1" d="M1360.53,212.2l-29.97,29.57v54.75h-62.34V0h62.34v167.84l91.11-86.32h74.33l-89.52,91.11,97.51,123.88h-75.53l-67.93-84.32Z"/>
  <g>
    <polygon class="cls-1" points="519.87 16.78 519.87 69.53 606.94 69.53 669.91 69.53 756.44 69.53 756.99 69.53 756.99 16.78 519.87 16.78"/>
    <rect class="cls-1" x="606.94" y="69.53" width="62.97" height="226.98"/>
  </g>
</svg>